<svg width="257" height="81" viewBox="0 0 257 81" fill="none" xmlns="http://www.w3.org/2000/svg">
<path d="M80.0128 7.68V36H71.1328V7.68H80.0128ZM111.183 36H102.303L92.9034 21.76V36H84.0234V7.68H92.9034L102.303 22.16V7.68H111.183V36ZM137.435 7.68V14.72H129.915V36H121.035V14.72H113.595V7.68H137.435ZM148.724 14.76V18.24H157.524V24.92H148.724V28.92H158.724V36H139.844V7.68H158.724V14.76H148.724ZM176.31 36L170.99 25.84H170.95V36H162.07V7.68H175.27C177.564 7.68 179.524 8.09333 181.15 8.92C182.777 9.72 183.99 10.8267 184.79 12.24C185.617 13.6267 186.03 15.2 186.03 16.96C186.03 18.8533 185.497 20.5333 184.43 22C183.39 23.4667 181.884 24.52 179.91 25.16L186.07 36H176.31ZM170.95 19.92H174.47C175.324 19.92 175.964 19.7333 176.39 19.36C176.817 18.96 177.03 18.3467 177.03 17.52C177.03 16.7733 176.804 16.1867 176.35 15.76C175.924 15.3333 175.297 15.12 174.47 15.12H170.95V19.92Z" fill="black"/>
<path d="M67.4522 69H64.3742L59.2262 61.206V69H56.1482V56.364H59.2262L64.3742 64.194V56.364H67.4522V69ZM74.2554 69.144C73.2714 69.144 72.3834 68.934 71.5914 68.514C70.8114 68.094 70.1934 67.494 69.7374 66.714C69.2934 65.934 69.0714 65.022 69.0714 63.978C69.0714 62.946 69.2994 62.04 69.7554 61.26C70.2114 60.468 70.8354 59.862 71.6274 59.442C72.4194 59.022 73.3074 58.812 74.2914 58.812C75.2754 58.812 76.1634 59.022 76.9554 59.442C77.7474 59.862 78.3714 60.468 78.8274 61.26C79.2834 62.04 79.5114 62.946 79.5114 63.978C79.5114 65.01 79.2774 65.922 78.8094 66.714C78.3534 67.494 77.7234 68.094 76.9194 68.514C76.1274 68.934 75.2394 69.144 74.2554 69.144ZM74.2554 66.48C74.8434 66.48 75.3414 66.264 75.7494 65.832C76.1694 65.4 76.3794 64.782 76.3794 63.978C76.3794 63.174 76.1754 62.556 75.7674 62.124C75.3714 61.692 74.8794 61.476 74.2914 61.476C73.6914 61.476 73.1934 61.692 72.7974 62.124C72.4014 62.544 72.2034 63.162 72.2034 63.978C72.2034 64.782 72.3954 65.4 72.7794 65.832C73.1754 66.264 73.6674 66.48 74.2554 66.48ZM97.7748 58.848C99.0228 58.848 100.013 59.226 100.745 59.982C101.489 60.738 101.861 61.788 101.861 63.132V69H98.8008V63.546C98.8008 62.898 98.6268 62.4 98.2788 62.052C97.9428 61.692 97.4748 61.512 96.8748 61.512C96.2748 61.512 95.8008 61.692 95.4528 62.052C95.1168 62.4 94.9488 62.898 94.9488 63.546V69H91.8888V63.546C91.8888 62.898 91.7148 62.4 91.3668 62.052C91.0308 61.692 90.5628 61.512 89.9628 61.512C89.3628 61.512 88.8888 61.692 88.5408 62.052C88.2048 62.4 88.0368 62.898 88.0368 63.546V69H84.9588V58.956H88.0368V60.216C88.3488 59.796 88.7568 59.466 89.2608 59.226C89.7648 58.974 90.3348 58.848 90.9708 58.848C91.7268 58.848 92.3988 59.01 92.9868 59.334C93.5868 59.658 94.0548 60.12 94.3908 60.72C94.7388 60.168 95.2128 59.718 95.8128 59.37C96.4128 59.022 97.0668 58.848 97.7748 58.848ZM113.481 63.816C113.481 64.104 113.463 64.404 113.427 64.716H106.461C106.509 65.34 106.707 65.82 107.055 66.156C107.415 66.48 107.853 66.642 108.369 66.642C109.137 66.642 109.671 66.318 109.971 65.67H113.247C113.079 66.33 112.773 66.924 112.329 67.452C111.897 67.98 111.351 68.394 110.691 68.694C110.031 68.994 109.293 69.144 108.477 69.144C107.493 69.144 106.617 68.934 105.849 68.514C105.081 68.094 104.481 67.494 104.049 66.714C103.617 65.934 103.401 65.022 103.401 63.978C103.401 62.934 103.611 62.022 104.031 61.242C104.463 60.462 105.063 59.862 105.831 59.442C106.599 59.022 107.481 58.812 108.477 58.812C109.449 58.812 110.313 59.016 111.069 59.424C111.825 59.832 112.413 60.414 112.833 61.17C113.265 61.926 113.481 62.808 113.481 63.816ZM110.331 63.006C110.331 62.478 110.151 62.058 109.791 61.746C109.431 61.434 108.981 61.278 108.441 61.278C107.925 61.278 107.487 61.428 107.127 61.728C106.779 62.028 106.563 62.454 106.479 63.006H110.331ZM114.493 63.96C114.493 62.928 114.685 62.022 115.069 61.242C115.465 60.462 115.999 59.862 116.671 59.442C117.343 59.022 118.093 58.812 118.921 58.812C119.581 58.812 120.181 58.95 120.721 59.226C121.273 59.502 121.705 59.874 122.017 60.342V55.68H125.095V69H122.017V67.56C121.729 68.04 121.315 68.424 120.775 68.712C120.247 69 119.629 69.144 118.921 69.144C118.093 69.144 117.343 68.934 116.671 68.514C115.999 68.082 115.465 67.476 115.069 66.696C114.685 65.904 114.493 64.992 114.493 63.96ZM122.017 63.978C122.017 63.21 121.801 62.604 121.369 62.16C120.949 61.716 120.433 61.494 119.821 61.494C119.209 61.494 118.687 61.716 118.255 62.16C117.835 62.592 117.625 63.192 117.625 63.96C117.625 64.728 117.835 65.34 118.255 65.796C118.687 66.24 119.209 66.462 119.821 66.462C120.433 66.462 120.949 66.24 121.369 65.796C121.801 65.352 122.017 64.746 122.017 63.978ZM128.87 57.912C128.33 57.912 127.886 57.756 127.538 57.444C127.202 57.12 127.034 56.724 127.034 56.256C127.034 55.776 127.202 55.38 127.538 55.068C127.886 54.744 128.33 54.582 128.87 54.582C129.398 54.582 129.83 54.744 130.166 55.068C130.514 55.38 130.688 55.776 130.688 56.256C130.688 56.724 130.514 57.12 130.166 57.444C129.83 57.756 129.398 57.912 128.87 57.912ZM130.4 58.956V69H127.322V58.956H130.4ZM132.019 63.96C132.019 62.928 132.211 62.022 132.595 61.242C132.991 60.462 133.525 59.862 134.197 59.442C134.869 59.022 135.619 58.812 136.447 58.812C137.155 58.812 137.773 58.956 138.301 59.244C138.841 59.532 139.255 59.91 139.543 60.378V58.956H142.621V69H139.543V67.578C139.243 68.046 138.823 68.424 138.283 68.712C137.755 69 137.137 69.144 136.429 69.144C135.613 69.144 134.869 68.934 134.197 68.514C133.525 68.082 132.991 67.476 132.595 66.696C132.211 65.904 132.019 64.992 132.019 63.96ZM139.543 63.978C139.543 63.21 139.327 62.604 138.895 62.16C138.475 61.716 137.959 61.494 137.347 61.494C136.735 61.494 136.213 61.716 135.781 62.16C135.361 62.592 135.151 63.192 135.151 63.96C135.151 64.728 135.361 65.34 135.781 65.796C136.213 66.24 136.735 66.462 137.347 66.462C137.959 66.462 138.475 66.24 138.895 65.796C139.327 65.352 139.543 64.746 139.543 63.978ZM153.702 61.512H152.046V69H148.968V61.512H147.852V58.956H148.968V58.668C148.968 57.432 149.322 56.496 150.03 55.86C150.738 55.212 151.776 54.888 153.144 54.888C153.372 54.888 153.54 54.894 153.648 54.906V57.516C153.06 57.48 152.646 57.564 152.406 57.768C152.166 57.972 152.046 58.338 152.046 58.866V58.956H153.702V61.512ZM159.72 69.144C158.736 69.144 157.848 68.934 157.056 68.514C156.276 68.094 155.658 67.494 155.202 66.714C154.758 65.934 154.536 65.022 154.536 63.978C154.536 62.946 154.764 62.04 155.22 61.26C155.676 60.468 156.3 59.862 157.092 59.442C157.884 59.022 158.772 58.812 159.756 58.812C160.74 58.812 161.628 59.022 162.42 59.442C163.212 59.862 163.836 60.468 164.292 61.26C164.748 62.04 164.976 62.946 164.976 63.978C164.976 65.01 164.742 65.922 164.274 66.714C163.818 67.494 163.188 68.094 162.384 68.514C161.592 68.934 160.704 69.144 159.72 69.144ZM159.72 66.48C160.308 66.48 160.806 66.264 161.214 65.832C161.634 65.4 161.844 64.782 161.844 63.978C161.844 63.174 161.64 62.556 161.232 62.124C160.836 61.692 160.344 61.476 159.756 61.476C159.156 61.476 158.658 61.692 158.262 62.124C157.866 62.544 157.668 63.162 157.668 63.978C157.668 64.782 157.86 65.4 158.244 65.832C158.64 66.264 159.132 66.48 159.72 66.48ZM176.527 58.956V69H173.449V67.632C173.137 68.076 172.711 68.436 172.171 68.712C171.643 68.976 171.055 69.108 170.407 69.108C169.639 69.108 168.961 68.94 168.373 68.604C167.785 68.256 167.329 67.758 167.005 67.11C166.681 66.462 166.519 65.7 166.519 64.824V58.956H169.579V64.41C169.579 65.082 169.753 65.604 170.101 65.976C170.449 66.348 170.917 66.534 171.505 66.534C172.105 66.534 172.579 66.348 172.927 65.976C173.275 65.604 173.449 65.082 173.449 64.41V58.956H176.527ZM184.858 58.848C186.034 58.848 186.97 59.232 187.666 60C188.374 60.756 188.728 61.8 188.728 63.132V69H185.668V63.546C185.668 62.874 185.494 62.352 185.146 61.98C184.798 61.608 184.33 61.422 183.742 61.422C183.154 61.422 182.686 61.608 182.338 61.98C181.99 62.352 181.816 62.874 181.816 63.546V69H178.738V58.956H181.816V60.288C182.128 59.844 182.548 59.496 183.076 59.244C183.604 58.98 184.198 58.848 184.858 58.848ZM190.255 63.96C190.255 62.928 190.447 62.022 190.831 61.242C191.227 60.462 191.761 59.862 192.433 59.442C193.105 59.022 193.855 58.812 194.683 58.812C195.343 58.812 195.943 58.95 196.483 59.226C197.035 59.502 197.467 59.874 197.779 60.342V55.68H200.857V69H197.779V67.56C197.491 68.04 197.077 68.424 196.537 68.712C196.009 69 195.391 69.144 194.683 69.144C193.855 69.144 193.105 68.934 192.433 68.514C191.761 68.082 191.227 67.476 190.831 66.696C190.447 65.904 190.255 64.992 190.255 63.96ZM197.779 63.978C197.779 63.21 197.563 62.604 197.131 62.16C196.711 61.716 196.195 61.494 195.583 61.494C194.971 61.494 194.449 61.716 194.017 62.16C193.597 62.592 193.387 63.192 193.387 63.96C193.387 64.728 193.597 65.34 194.017 65.796C194.449 66.24 194.971 66.462 195.583 66.462C196.195 66.462 196.711 66.24 197.131 65.796C197.563 65.352 197.779 64.746 197.779 63.978Z" fill="black"/>
</svg>
