<svg width="267" height="132" viewBox="0 0 267 132" fill="none" xmlns="http://www.w3.org/2000/svg">
<path d="M259.176 2.7313C259.876 0.636228 262.143 -0.494151 264.238 0.20653C266.333 0.907212 267.463 3.17362 266.762 5.2687L259.176 2.7313ZM177.46 115.489L178.72 119.286L178.72 119.286L177.46 115.489ZM0.457288 97.5628C-0.568351 95.6062 0.186357 93.1886 2.14298 92.1629L34.0279 75.4492C35.9846 74.4235 38.4022 75.1783 39.4278 77.1349C40.4534 79.0915 39.6987 81.5091 37.7421 82.5347L9.39992 97.3914L24.2566 125.734C25.2822 127.69 24.5275 130.108 22.5709 131.133C20.6143 132.159 18.1967 131.404 17.171 129.448L0.457288 97.5628ZM262.969 4C266.762 5.2687 266.762 5.26991 266.762 5.27149C266.761 5.27249 266.761 5.27442 266.76 5.27641C266.759 5.28041 266.757 5.28583 266.754 5.29265C266.75 5.3063 266.743 5.32559 266.735 5.35044C266.718 5.40015 266.694 5.47209 266.662 5.56562C266.597 5.75269 266.503 6.02615 266.378 6.38084C266.129 7.09019 265.759 8.12466 265.27 9.44286C264.293 12.0789 262.84 15.8519 260.927 20.4306C257.105 29.5811 251.431 41.9843 244.031 54.9743C229.383 80.6862 207.371 109.778 178.72 119.286L176.2 111.693C201.792 103.2 222.534 76.5467 237.08 51.0143C244.276 38.382 249.81 26.2882 253.545 17.347C255.411 12.8799 256.825 9.20857 257.769 6.66161C258.241 5.38833 258.596 4.39668 258.831 3.72778C258.949 3.39335 259.036 3.13966 259.094 2.97185C259.122 2.88795 259.144 2.82552 259.157 2.78521C259.164 2.76506 259.169 2.75044 259.172 2.74142C259.174 2.73692 259.175 2.73382 259.175 2.73213C259.176 2.73128 259.176 2.73108 259.176 2.73065C259.176 2.7308 259.176 2.7313 262.969 4ZM178.72 119.286C164.668 123.949 146.562 124.897 127.627 123.863C108.614 122.825 88.4034 119.764 69.9538 116.164C51.4918 112.562 34.7189 108.406 22.5647 105.151C16.4854 103.523 11.5561 102.119 8.14234 101.121C6.43534 100.622 5.10691 100.225 4.20273 99.9508C3.75063 99.8139 3.40456 99.708 3.17023 99.636C3.05306 99.5999 2.96382 99.5723 2.90323 99.5535C2.87293 99.5442 2.8498 99.537 2.83392 99.532C2.82597 99.5296 2.81984 99.5277 2.81554 99.5263C2.81338 99.5256 2.81152 99.5251 2.81045 99.5247C2.80904 99.5243 2.8081 99.524 4.00006 95.7057C5.19202 91.8874 5.19199 91.8874 5.19242 91.8876C5.19317 91.8878 5.19406 91.8881 5.19556 91.8885C5.19856 91.8895 5.20338 91.891 5.21001 91.893C5.22327 91.8972 5.24376 91.9035 5.27139 91.9121C5.32666 91.9292 5.4105 91.9551 5.5222 91.9895C5.7456 92.0582 6.08043 92.1607 6.52099 92.2941C7.40213 92.5609 8.70608 92.9513 10.3873 93.4428C13.7499 94.4259 18.6202 95.8129 24.634 97.4232C36.6659 100.645 53.2529 104.755 71.4858 108.312C89.7312 111.872 109.55 114.864 128.063 115.875C146.655 116.89 163.572 115.884 176.2 111.693L178.72 119.286Z" fill="url(#paint0_linear_209_1669)"/>
<defs>
<linearGradient id="paint0_linear_209_1669" x1="3.74955" y1="94.5563" x2="263.13" y2="2.93058" gradientUnits="userSpaceOnUse">
<stop stop-color="#FDC5C5"/>
<stop offset="0.9375" stop-color="#2B2B2B"/>
</linearGradient>
</defs>
</svg>
