<svg width="20" height="20" viewBox="0 0 20 20" fill="none" xmlns="http://www.w3.org/2000/svg">
<g clip-path="url(#clip0_209_1392)">
<path d="M15.7346 0H4.26542C1.90969 0 0 1.90969 0 4.26542V15.7346C0 18.0903 1.90969 20 4.26542 20H15.7346C18.0903 20 20 18.0903 20 15.7346V4.26542C20 1.90969 18.0903 0 15.7346 0Z" fill="#545454"/>
<path fill-rule="evenodd" clip-rule="evenodd" d="M16.0832 6.96647C15.6447 7.1606 15.1796 7.28798 14.7034 7.34439C15.2014 7.04557 15.5823 6.57392 15.758 6.01437C15.287 6.29359 14.7718 6.49072 14.2347 6.59735C13.9055 6.24402 13.4776 5.99808 13.0066 5.89163C12.5356 5.78517 12.0434 5.82313 11.5943 6.00056C11.1452 6.17799 10.76 6.48665 10.4889 6.88627C10.2178 7.2859 10.0735 7.75794 10.0747 8.24083C10.0741 8.42519 10.0948 8.60901 10.1363 8.78865C9.18069 8.74073 8.24587 8.49246 7.39244 8.05994C6.53902 7.62743 5.78605 7.02033 5.18239 6.27803C4.8736 6.80718 4.77865 7.43432 4.91697 8.03116C5.05529 8.628 5.41642 9.14944 5.9265 9.48881C5.54433 9.47683 5.17061 9.37336 4.83671 9.18707V9.21636C4.83671 10.3823 5.66577 11.3549 6.76435 11.5746C6.41094 11.6711 6.0401 11.6851 5.68042 11.6157C5.83404 12.093 6.13284 12.5105 6.53513 12.8098C6.93741 13.1092 7.42311 13.2755 7.92445 13.2855C7.42581 13.6775 6.85475 13.9672 6.24397 14.1381C5.63319 14.309 4.9947 14.3578 4.36505 14.2815C5.42848 14.9641 6.69111 15.3596 8.05042 15.3596C12.474 15.3596 14.8909 11.6977 14.8909 8.51913C14.8909 8.4166 14.8909 8.31407 14.885 8.2086C15.3538 7.8717 15.7639 7.44692 16.0862 6.96647H16.0832Z" fill="#181818"/>
</g>
<defs>
<clipPath id="clip0_209_1392">
<rect width="20" height="20" fill="white"/>
</clipPath>
</defs>
</svg>
